<svg width="427" height="373" viewBox="0 0 427 373" fill="none" xmlns="http://www.w3.org/2000/svg">
<path opacity="0.42" d="M100.188 344.18C98.2356 346.319 101.436 349.295 104.171 350.332C122.019 357.165 140.965 360.678 160.075 360.695L156.821 366.236C186.775 374.558 218.406 374.723 248.445 366.714L243.824 359.539L270.66 358.211C274.923 358.011 289.875 359.765 292.703 355.979C300.843 345.07 267.712 344.645 264.154 344.499C228.806 343.02 193.435 342.448 158.043 342.785C148.394 342.873 138.745 343.028 129.095 343.25C124.528 343.409 103.029 341.151 100.188 344.18Z" fill="#525369"/>
<path d="M251.061 245.871C250.344 260.044 249.49 274.243 248.498 288.469C248.203 295.659 247.27 302.809 245.71 309.834C244.662 314.01 243.185 318.067 241.301 321.938C240.491 323.599 239.336 325.406 237.517 325.592C235.219 325.831 233.626 323.373 232.803 321.207C228.7 310.578 228.699 298.939 228.434 287.565C228.283 281.684 228.049 275.798 227.73 269.907C227.345 262.799 226.575 255.106 221.768 249.844C220.307 248.25 218.528 246.948 217.094 245.313C211.238 238.67 212.991 227.469 219.298 221.211C224.198 216.361 238.42 209.957 245.285 213.97C253.438 218.727 251.446 238.205 251.061 245.871Z" fill="#06092B"/>
<path d="M209.95 221.543C212.003 224.799 212.966 228.625 212.698 232.465C212.366 244.011 205.515 254.229 202.075 265.27C196.923 281.945 199.792 299.815 200.309 317.314C200.549 319.724 200.25 322.156 199.433 324.436C198.999 325.566 198.232 326.537 197.234 327.221C196.235 327.904 195.052 328.267 193.843 328.262C192.09 327.937 190.512 326.994 189.394 325.605C180.949 316.57 181.228 302.792 179.834 290.515C178.267 276.843 174.031 263.636 170.419 250.362C168.786 244.37 167.259 238.231 167.644 232.04C168.029 225.848 170.631 219.484 175.744 215.976C185.026 209.625 203.324 212.043 209.95 221.543Z" fill="#06092B"/>
<path opacity="0.52" d="M56.7067 202.317L346.395 202.317C349.156 202.317 351.395 200.079 351.395 197.317V192.941C351.395 190.18 349.156 187.941 346.395 187.941L56.7067 187.941C53.9453 187.941 51.7067 190.18 51.7067 192.941V197.317C51.7067 200.079 53.9453 202.317 56.7067 202.317Z" fill="#525369"/>
<path d="M110.2 169.446L306.234 169.446C315.445 169.446 322.912 161.974 322.912 152.758V16.6881C322.912 7.47153 315.445 -1.52588e-05 306.234 -1.52588e-05L110.2 -1.52588e-05C100.989 -1.52588e-05 93.5216 7.47153 93.5216 16.6881L93.5216 152.758C93.5216 161.974 100.989 169.446 110.2 169.446Z" fill="#3CD3C1"/>
<path d="M110.2 169.446L306.234 169.446C315.445 169.446 322.912 161.974 322.912 152.758V16.6881C322.912 7.47153 315.445 -1.52588e-05 306.234 -1.52588e-05L110.2 -1.52588e-05C100.989 -1.52588e-05 93.5216 7.47153 93.5216 16.6881L93.5216 152.758C93.5216 161.974 100.989 169.446 110.2 169.446Z" fill="#3CD3C1"/>
<path d="M165.79 26.5336H123.406C122.478 26.5336 121.726 27.2861 121.726 28.2144C121.726 29.1427 122.478 29.8952 123.406 29.8952H165.79C166.718 29.8952 167.471 29.1427 167.471 28.2144C167.471 27.2861 166.718 26.5336 165.79 26.5336Z" fill="#FAFAFA"/>
<path d="M148.076 33.0309H123.3C122.431 33.0309 121.726 33.7359 121.726 34.6054C121.726 35.475 122.431 36.1799 123.3 36.1799H148.076C148.946 36.1799 149.651 35.475 149.651 34.6054C149.651 33.7359 148.946 33.0309 148.076 33.0309Z" fill="#FAFAFA"/>
<path d="M247.189 33.0309H162.499C161.622 33.0309 160.911 33.7418 160.911 34.6187C160.911 35.4956 161.622 36.2065 162.499 36.2065H247.189C248.066 36.2065 248.777 35.4956 248.777 34.6187C248.777 33.7418 248.066 33.0309 247.189 33.0309Z" fill="#FAFAFA"/>
<path d="M304.859 33.0309H258.584C257.707 33.0309 256.996 33.7418 256.996 34.6187C256.996 35.4956 257.707 36.2065 258.584 36.2065H304.859C305.736 36.2065 306.446 35.4956 306.446 34.6187C306.446 33.7418 305.736 33.0309 304.859 33.0309Z" fill="#FAFAFA"/>
<path d="M172.981 39.5547H137.913C136.996 39.5547 136.253 40.2983 136.253 41.2155C136.253 42.1328 136.996 42.8764 137.913 42.8764H172.981C173.898 42.8764 174.641 42.1328 174.641 41.2155C174.641 40.2983 173.898 39.5547 172.981 39.5547Z" fill="#FAFAFA"/>
<path d="M192.64 46.0386H150.256C149.328 46.0386 148.575 46.7911 148.575 47.7193C148.575 48.6476 149.328 49.4001 150.256 49.4001H192.64C193.568 49.4001 194.321 48.6476 194.321 47.7193C194.321 46.7911 193.568 46.0386 192.64 46.0386Z" fill="#FAFAFA"/>
<path d="M233.791 46.0386H199.175C198.144 46.0386 197.308 46.8744 197.308 47.9054C197.308 48.9364 198.144 49.7721 199.175 49.7721H233.791C234.822 49.7721 235.657 48.9364 235.657 47.9054C235.657 46.8744 234.822 46.0386 233.791 46.0386Z" fill="#FAFAFA"/>
<path d="M182.256 52.5358H150.083C149.214 52.5358 148.509 53.2408 148.509 54.1103C148.509 54.9799 149.214 55.6848 150.083 55.6848H182.256C183.125 55.6848 183.83 54.9799 183.83 54.1103C183.83 53.2408 183.125 52.5358 182.256 52.5358Z" fill="#FAFAFA"/>
<path d="M258.37 52.5358H188.964C187.999 52.5358 187.216 53.3181 187.216 54.283C187.216 55.248 187.999 56.0302 188.964 56.0302H258.37C259.335 56.0302 260.117 55.248 260.117 54.283C260.117 53.3181 259.335 52.5358 258.37 52.5358Z" fill="#FAFAFA"/>
<path d="M165.79 61.3317H123.406C122.478 61.3317 121.726 62.0842 121.726 63.0125C121.726 63.9407 122.478 64.6933 123.406 64.6933H165.79C166.718 64.6933 167.471 63.9407 167.471 63.0125C167.471 62.0842 166.718 61.3317 165.79 61.3317Z" fill="#FAFAFA"/>
<path d="M148.076 67.8289H123.3C122.431 67.8289 121.726 68.5338 121.726 69.4033C121.726 70.2729 122.431 70.9778 123.3 70.9778H148.076C148.946 70.9778 149.651 70.2729 149.651 69.4033C149.651 68.5338 148.946 67.8289 148.076 67.8289Z" fill="#FAFAFA"/>
<path d="M247.189 67.8289H162.499C161.622 67.8289 160.911 68.5397 160.911 69.4166C160.911 70.2935 161.622 71.0044 162.499 71.0044H247.189C248.066 71.0044 248.777 70.2935 248.777 69.4166C248.777 68.5397 248.066 67.8289 247.189 67.8289Z" fill="#FAFAFA"/>
<path d="M304.859 67.8289H258.584C257.707 67.8289 256.996 68.5397 256.996 69.4166C256.996 70.2935 257.707 71.0044 258.584 71.0044H304.859C305.736 71.0044 306.446 70.2935 306.446 69.4166C306.446 68.5397 305.736 67.8289 304.859 67.8289Z" fill="#FAFAFA"/>
<path d="M172.981 74.3261H137.913C136.996 74.3261 136.253 75.0697 136.253 75.9869C136.253 76.9042 136.996 77.6478 137.913 77.6478H172.981C173.898 77.6478 174.641 76.9042 174.641 75.9869C174.641 75.0697 173.898 74.3261 172.981 74.3261Z" fill="#FAFAFA"/>
<path d="M192.64 80.8366H150.256C149.328 80.8366 148.575 81.5891 148.575 82.5174C148.575 83.4456 149.328 84.1982 150.256 84.1982H192.64C193.568 84.1982 194.321 83.4456 194.321 82.5174C194.321 81.5891 193.568 80.8366 192.64 80.8366Z" fill="#FAFAFA"/>
<path d="M233.791 80.8366H199.175C198.144 80.8366 197.308 81.6724 197.308 82.7034C197.308 83.7344 198.144 84.5702 199.175 84.5702H233.791C234.822 84.5702 235.657 83.7344 235.657 82.7034C235.657 81.6724 234.822 80.8366 233.791 80.8366Z" fill="#FAFAFA"/>
<path d="M182.256 87.3338H150.083C149.214 87.3338 148.509 88.0387 148.509 88.9083C148.509 89.7778 149.214 90.4828 150.083 90.4828H182.256C183.125 90.4828 183.83 89.7778 183.83 88.9083C183.83 88.0387 183.125 87.3338 182.256 87.3338Z" fill="#FAFAFA"/>
<path d="M258.37 87.3338H188.964C187.999 87.3338 187.216 88.1161 187.216 89.081C187.216 90.046 187.999 90.8282 188.964 90.8282H258.37C259.335 90.8282 260.117 90.046 260.117 89.081C260.117 88.1161 259.335 87.3338 258.37 87.3338Z" fill="#FAFAFA"/>
<path d="M165.79 96.1164H123.406C122.478 96.1164 121.726 96.8689 121.726 97.7971C121.726 98.7254 122.478 99.4779 123.406 99.4779H165.79C166.718 99.4779 167.471 98.7254 167.471 97.7971C167.471 96.8689 166.718 96.1164 165.79 96.1164Z" fill="#FAFAFA"/>
<path d="M148.076 102.614H123.3C122.431 102.614 121.726 103.319 121.726 104.188C121.726 105.058 122.431 105.763 123.3 105.763H148.076C148.946 105.763 149.651 105.058 149.651 104.188C149.651 103.319 148.946 102.614 148.076 102.614Z" fill="#FAFAFA"/>
<path d="M247.189 102.614H162.499C161.622 102.614 160.911 103.324 160.911 104.201C160.911 105.078 161.622 105.789 162.499 105.789H247.189C248.066 105.789 248.777 105.078 248.777 104.201C248.777 103.324 248.066 102.614 247.189 102.614Z" fill="#FAFAFA"/>
<path d="M304.859 102.614H258.584C257.707 102.614 256.996 103.324 256.996 104.201C256.996 105.078 257.707 105.789 258.584 105.789H304.859C305.736 105.789 306.446 105.078 306.446 104.201C306.446 103.324 305.736 102.614 304.859 102.614Z" fill="#FAFAFA"/>
<path d="M172.981 109.111H137.913C136.996 109.111 136.253 109.854 136.253 110.772C136.253 111.689 136.996 112.432 137.913 112.432H172.981C173.898 112.432 174.641 111.689 174.641 110.772C174.641 109.854 173.898 109.111 172.981 109.111Z" fill="#FAFAFA"/>
<path d="M192.64 115.608H150.256C149.328 115.608 148.575 116.361 148.575 117.289C148.575 118.217 149.328 118.97 150.256 118.97H192.64C193.568 118.97 194.321 118.217 194.321 117.289C194.321 116.361 193.568 115.608 192.64 115.608Z" fill="#FAFAFA"/>
<path d="M233.791 115.608H199.175C198.144 115.608 197.308 116.444 197.308 117.475C197.308 118.506 198.144 119.342 199.175 119.342H233.79C234.821 119.342 235.657 118.506 235.657 117.475C235.657 116.444 234.822 115.608 233.791 115.608Z" fill="#FAFAFA"/>
<path d="M182.256 122.119H150.083C149.214 122.119 148.509 122.823 148.509 123.693C148.509 124.563 149.214 125.267 150.083 125.267H182.256C183.125 125.267 183.83 124.563 183.83 123.693C183.83 122.823 183.125 122.119 182.256 122.119Z" fill="#FAFAFA"/>
<path d="M258.37 122.119H188.964C187.999 122.119 187.216 122.901 187.216 123.866C187.216 124.831 187.999 125.613 188.964 125.613H258.37C259.335 125.613 260.117 124.831 260.117 123.866C260.117 122.901 259.335 122.119 258.37 122.119Z" fill="#FAFAFA"/>
<path d="M263.423 178.627C264.366 181.284 265.256 184.075 264.671 186.812C264.46 187.759 264.077 188.659 263.543 189.469C260.887 193.588 254.593 194.226 250.264 191.754C245.935 189.283 243.492 184.553 242.297 179.796C241.826 178.203 241.668 176.534 241.832 174.88C242.217 171.997 244.129 169.565 246.121 167.44C248.777 164.676 253.65 161.062 257.222 164.384C260.436 167.36 262.002 174.654 263.423 178.627Z" fill="#F8C0DD"/>
<path d="M154.816 177.83C154.235 178.928 153.964 180.164 154.033 181.404C154.194 182.202 154.51 182.96 154.962 183.636C156.08 185.642 157.572 187.415 159.358 188.858C161.16 190.303 163.442 191.01 165.745 190.838C169.144 190.466 171.84 187.768 173.646 184.859C175.523 182.094 176.51 178.82 176.474 175.478C176.37 173.717 175.878 172.001 175.033 170.453C174.188 168.905 173.012 167.563 171.587 166.523C169.025 164.663 163.687 162.975 160.792 165.101C157.897 167.227 156.264 174.402 154.816 177.83Z" fill="#F8C0DD"/>
<path d="M233.241 80.2387C233.712 80.1021 234.209 80.0754 234.692 80.1607C235.175 80.2459 235.633 80.4407 236.029 80.7303C236.583 81.3619 236.906 82.163 236.946 83.0024C237.284 84.6949 237.351 86.4306 237.145 88.1443C236.922 89.8477 236.087 91.4114 234.794 92.5422C233.788 93.2837 232.654 93.8332 231.448 94.1632C230.543 94.5741 229.513 94.6123 228.58 94.2695C228.173 93.9924 227.833 93.6279 227.585 93.2027C227.337 92.7774 227.187 92.3021 227.146 91.8114C226.097 86.6695 227.704 81.2485 233.241 80.2387Z" fill="#F8C0DD"/>
<path d="M184.893 78.4583C184.365 78.3255 183.813 78.3255 183.286 78.4583C182.71 78.7298 182.224 79.1606 181.885 79.6998C181.546 80.239 181.369 80.864 181.374 81.5009C181.288 82.7505 181.368 84.0061 181.613 85.2345C181.842 87.2908 182.684 89.2306 184.03 90.8016C184.707 91.5576 185.619 92.0631 186.619 92.2366C187.619 92.4102 188.648 92.2417 189.54 91.7583C195.184 87.852 189.872 79.5478 184.893 78.4583Z" fill="#F8C0DD"/>
<path d="M220.639 115.595C220.901 116.798 220.973 118.036 220.852 119.262C220.36 122.663 216.974 125.042 213.575 125.467C210.176 125.892 206.776 124.749 203.603 123.487C202.628 123.158 201.726 122.644 200.947 121.972C200.169 121.159 199.639 120.14 199.42 119.036C199.039 117.121 198.923 115.163 199.075 113.216L199.287 106.36C199.222 105.019 199.486 103.682 200.057 102.467C201.385 100.195 204.426 99.81 207.068 99.6373C210.534 99.4911 215.753 99.6373 218.037 102.8C220.321 105.962 220.055 111.914 220.639 115.595Z" fill="#F8C0DD"/>
<path d="M231.315 59.6309C232.348 62.5235 232.711 65.6126 232.378 68.6659C232.082 75.716 231.346 82.7407 230.173 89.6988C229.297 94.9205 227.916 100.528 223.786 103.823C222.606 104.617 221.491 105.506 220.453 106.48C219.736 107.251 219.232 108.207 218.568 109.044C215.208 113.256 208.436 113.256 203.815 110.453C199.194 107.649 196.233 102.839 193.524 98.1625C190.536 93.0072 187.575 87.6128 187.044 81.6736C186.606 76.9701 187.708 72.0142 185.915 67.6428C184.588 64.4275 181.839 61.8498 181.228 58.4351C180.992 56.1345 181.273 53.8101 182.051 51.6323C183.127 47.7659 184.773 43.3015 188.691 42.2519C191.546 41.4812 194.493 42.9428 197.455 43.0358C201.226 43.1687 205.063 41.0561 208.649 42.2519C213.256 43.7931 215.288 49.1078 219.882 50.8351C224.477 52.5624 229.178 54.7414 231.315 59.6309Z" fill="#06092B"/>
<path d="M246.559 127.726C233.094 116.551 213.668 116.83 196.339 119.196C189.182 120.165 181.892 121.454 175.597 125.015C165.054 130.994 158.813 142.554 155.533 154.246C153.794 160.451 152.878 167.533 156.357 172.98C160.008 178.614 167.285 180.554 173.951 181.298C174.972 181.321 175.97 181.609 176.846 182.135C177.764 182.986 178.34 184.144 178.466 185.39C180.325 195.089 176.554 205.985 181.533 214.501C186.353 222.726 197.122 224.892 206.617 225.622C218.9 226.566 232.218 226.22 242.19 218.979C243.845 217.867 245.251 216.423 246.32 214.741C247.967 211.924 248.06 208.496 248.099 205.24C248.206 198.145 245.616 183.875 249.069 177.617C251.964 172.409 260.21 172.382 263.104 166.43C268.589 155.11 254.805 134.555 246.559 127.726Z" fill="white"/>
<path d="M198.008 221.596L198.1 238.273C198.165 238.916 198.056 239.565 197.785 240.136C197.348 240.739 196.716 241.124 196.026 241.207C191.982 242.263 187.755 241.662 183.606 241.676C179.457 241.691 174.98 242.513 172 245.754C176.529 249.495 182.372 250.521 187.978 251.255C196.275 252.36 204.59 253.093 212.923 253.455C218.324 253.9 223.754 253.585 229.084 252.516C233.771 251.465 238.164 249.177 241.898 245.842C238.235 241.442 232.17 241.53 226.813 241.53C221.601 241.528 216.394 241.195 211.216 240.532C210.631 240.541 210.05 240.416 209.511 240.163C208.971 239.911 208.483 239.537 208.078 239.066C207.642 238.196 207.467 237.194 207.579 236.205C207.679 232.502 208.097 228.818 208.827 225.204C208.982 224.011 209.412 222.884 210.074 221.933C211.243 220.816 212.712 220.166 214.249 220.085C220.328 218.953 226.288 217.135 232.038 214.658C234.407 213.781 236.61 212.423 238.537 210.653C243.71 205.402 243.487 196.352 242.292 188.651C232.772 194.825 222.022 198.244 211.019 198.596C203.496 198.83 187.177 195.222 181.886 203.319C179.26 207.411 182.057 211.196 184.958 214.027C186.219 215.23 198.008 221.434 198.008 221.596Z" fill="url(#paint0_linear)"/>
<path d="M225.087 149.489H193.484C181.171 149.489 171.189 159.477 171.189 171.798V181.218C171.189 193.539 181.171 203.526 193.484 203.526H225.087C237.401 203.526 247.382 193.539 247.382 181.218V171.798C247.382 159.477 237.401 149.489 225.087 149.489Z" fill="#050720"/>
<path d="M225.087 149.489H193.484C181.171 149.489 171.189 159.477 171.189 171.798V181.218C171.189 193.539 181.171 203.526 193.484 203.526H225.087C237.401 203.526 247.382 193.539 247.382 181.218V171.798C247.382 159.477 237.401 149.489 225.087 149.489Z" fill="url(#paint1_linear)"/>
<path d="M225.087 154.458H193.484C181.171 154.458 171.189 164.446 171.189 176.767V186.187C171.189 198.508 181.171 208.496 193.484 208.496H225.087C237.401 208.496 247.382 198.508 247.382 186.187V176.767C247.382 164.446 237.401 154.458 225.087 154.458Z" fill="#191C3E"/>
<path d="M221.011 184.287C218.731 185.299 216.33 186.014 213.867 186.413C207.228 187.635 199.473 187.37 194.692 182.547C193.943 181.814 193.336 180.949 192.9 179.996C191.572 176.767 193.312 172.874 196.166 170.828C199.021 168.782 202.646 168.237 206.139 168.064C210.415 167.851 218.541 167.121 222.272 170.004C226.734 173.458 226.044 181.922 221.011 184.287Z" fill="url(#paint2_linear)"/>
<path d="M208.011 261.882H208.024C210.892 261.882 213.216 259.556 213.216 256.687V181.191C213.216 178.322 210.892 175.996 208.024 175.996H208.011C205.144 175.996 202.819 178.322 202.819 181.191V256.687C202.819 259.556 205.144 261.882 208.011 261.882Z" fill="white"/>
<path d="M240 321.725C242.655 323.918 243.319 327.718 244.488 331.026C246.108 335.543 249.109 339.649 249.507 344.432C249.681 345.851 249.446 347.289 248.83 348.578C248.236 349.575 247.392 350.399 246.381 350.968C245.369 351.536 244.227 351.83 243.067 351.82C240.743 351.772 238.478 351.082 236.521 349.827C233.06 347.764 230.202 344.827 228.235 341.31C227.231 339.589 226.589 337.681 226.349 335.703C225.805 329.711 232.019 315.348 240 321.725Z" fill="#525369"/>
<path d="M244.952 347.076C245.14 347.426 245.237 347.816 245.237 348.212C245.237 348.609 245.14 348.999 244.952 349.348C244.646 349.677 244.24 349.897 243.797 349.973C241.968 350.327 240.072 349.981 238.486 349.003C236.92 348.042 235.483 346.886 234.21 345.562C232.239 343.831 230.494 341.858 229.018 339.689C227.539 337.485 226.937 334.807 227.331 332.182C228.739 324.981 235.086 331.438 237.423 334.095C240.759 337.887 243.317 342.297 244.952 347.076Z" fill="#06092B"/>
<path d="M188.013 321.871C185.358 324.064 184.694 327.864 183.525 331.172C181.905 335.69 178.904 339.809 178.506 344.579C178.332 346.001 178.567 347.444 179.183 348.737C179.778 349.732 180.624 350.553 181.635 351.12C182.646 351.686 183.787 351.978 184.946 351.966C187.271 351.925 189.538 351.235 191.492 349.973C194.956 347.914 197.815 344.976 199.778 341.456C200.784 339.736 201.426 337.828 201.664 335.849C202.195 329.857 195.981 315.441 188.013 321.871Z" fill="#525369"/>
<path d="M182.383 347.595C182.199 347.945 182.103 348.335 182.103 348.731C182.103 349.126 182.199 349.516 182.383 349.867C182.695 350.196 183.105 350.415 183.552 350.491C185.381 350.831 187.272 350.486 188.863 349.521C190.421 348.555 191.853 347.399 193.126 346.08C195.104 344.348 196.854 342.37 198.331 340.194C199.807 337.994 200.408 335.321 200.017 332.7C198.596 325.485 192.262 331.943 189.912 334.613C186.58 338.407 184.022 342.817 182.383 347.595Z" fill="#06092B"/>
<path d="M216.47 290.103C214.331 291.12 211.968 291.577 209.605 291.432C206.988 291.582 204.363 291.39 201.797 290.86C200.931 290.689 200.12 290.311 199.433 289.757C198.86 289.232 198.407 288.588 198.105 287.871C195.941 283.088 193.497 273.176 196.857 269.15C200.695 264.526 215.925 263.715 220.759 268.565C225.446 273.109 222.047 286.821 216.47 290.103Z" fill="#3CD3C1"/>
<path d="M216.47 290.103C214.331 291.12 211.968 291.577 209.605 291.432C206.988 291.582 204.363 291.39 201.797 290.86C200.931 290.689 200.12 290.311 199.433 289.757C198.86 289.232 198.407 288.588 198.105 287.871C195.941 283.088 193.497 273.176 196.857 269.15C200.695 264.526 215.925 263.715 220.759 268.565C225.446 273.109 222.047 286.821 216.47 290.103Z" fill="#393A55"/>
<path d="M205.9 335.052H212.831V290.302H205.9V335.052Z" fill="white"/>
<path d="M236.773 338.772C238.313 340.034 239.814 341.616 241.792 341.855C243.226 342.014 244.661 341.403 246.121 341.403C248.044 341.538 249.856 342.353 251.233 343.702C252.535 344.732 253.512 346.116 254.049 347.688C255.124 351.355 251.858 355.367 248.047 355.739C244.236 356.111 240.571 353.507 238.898 350.079C238.537 349.14 238.064 348.248 237.49 347.422C236.939 346.829 236.298 346.327 235.591 345.934C229.952 342.434 223.732 339.973 217.227 338.666C216.098 338.44 214.717 338.334 214 339.224C213.653 339.734 213.463 340.334 213.455 340.951C213.161 343.598 213.042 346.261 213.097 348.923C213.062 349.435 213.158 349.947 213.376 350.411C213.72 350.89 214.142 351.307 214.624 351.647C215.391 352.464 215.874 353.507 215.998 354.621C216.123 355.735 215.883 356.859 215.314 357.825C214.113 359.73 212.272 361.143 210.122 361.811C207.573 362.755 204.359 362.914 202.461 360.961C201.79 360.206 201.342 359.28 201.166 358.285C200.991 357.291 201.094 356.267 201.465 355.327C202.23 353.452 203.644 351.914 205.448 350.996C206.076 350.758 206.62 350.343 207.015 349.8C207.235 349.299 207.317 348.749 207.254 348.206L207.068 342.28C207.125 341.828 207.072 341.369 206.915 340.941C206.758 340.514 206.501 340.13 206.165 339.822C205.635 339.546 205.027 339.457 204.439 339.569C194.679 340.323 185.333 343.829 177.483 349.681C178.917 350.797 178.665 353.215 177.377 354.49C175.958 355.661 174.136 356.224 172.305 356.058C170.292 356.079 168.318 355.501 166.635 354.397C165.792 353.846 165.105 353.088 164.64 352.194C164.174 351.3 163.947 350.302 163.979 349.295C164.114 348.275 164.512 347.308 165.134 346.488C165.755 345.668 166.579 345.024 167.524 344.618C169.424 343.822 171.514 343.596 173.539 343.967C174.582 344.189 175.649 344.274 176.713 344.22C177.907 343.972 179.043 343.498 180.059 342.825C189.256 337.629 199.456 334.458 209.976 333.524C218.793 332.74 229.642 332.926 236.773 338.772Z" fill="white"/>
<path d="M167.909 273.694H245.417C254.621 273.694 262.082 266.228 262.082 257.019V255.969C262.082 246.76 254.621 239.294 245.417 239.294H167.909C158.706 239.294 151.244 246.76 151.244 255.969V257.019C151.244 266.228 158.706 273.694 167.909 273.694Z" fill="#3CD3C1"/>
<path d="M167.909 273.694H245.417C254.621 273.694 262.082 266.228 262.082 257.019V255.969C262.082 246.76 254.621 239.294 245.417 239.294H167.909C158.706 239.294 151.244 246.76 151.244 255.969V257.019C151.244 266.228 158.706 273.694 167.909 273.694Z" fill="#525369"/>
<rect y="115.651" width="114" height="54" rx="4" fill="#FAFAFA"/>
<path opacity="0.7" d="M40.1661 127.651H12.1094C11.4967 127.651 11 128.147 11 128.76C11 129.373 11.4967 129.87 12.1094 129.87H40.1661C40.7789 129.87 41.2756 129.373 41.2756 128.76C41.2756 128.147 40.7789 127.651 40.1661 127.651Z" fill="#3CD3C1"/>
<path opacity="0.7" d="M28.441 131.956H12.043C11.467 131.956 11 132.423 11 132.999C11 133.575 11.467 134.042 12.043 134.042H28.441C29.0171 134.042 29.484 133.575 29.484 132.999C29.484 132.423 29.0171 131.956 28.441 131.956Z" fill="#3CD3C1"/>
<path opacity="0.7" d="M94.0315 131.956H37.9831C37.4034 131.956 36.9334 132.426 36.9334 133.005C36.9334 133.585 37.4034 134.055 37.9831 134.055H94.0315C94.6112 134.055 95.0811 133.585 95.0811 133.005C95.0811 132.426 94.6112 131.956 94.0315 131.956Z" fill="#3CD3C1"/>
<path opacity="0.7" d="M44.9266 136.261H21.7166C21.1076 136.261 20.6138 136.754 20.6138 137.363C20.6138 137.972 21.1076 138.466 21.7166 138.466H44.9266C45.5356 138.466 46.0294 137.972 46.0294 137.363C46.0294 136.754 45.5356 136.261 44.9266 136.261Z" fill="#3CD3C1"/>
<path opacity="0.7" d="M57.9331 140.565H29.8764C29.2637 140.565 28.767 141.062 28.767 141.675C28.767 142.288 29.2637 142.784 29.8764 142.784H57.9331C58.5458 142.784 59.0425 142.288 59.0425 141.675C59.0425 141.062 58.5458 140.565 57.9331 140.565Z" fill="#3CD3C1"/>
<path opacity="0.7" d="M85.1612 140.565H62.2568C61.5743 140.565 61.0211 141.119 61.0211 141.801C61.0211 142.483 61.5743 143.037 62.2568 143.037H85.1612C85.8436 143.037 86.3968 142.483 86.3968 141.801C86.3968 141.119 85.8436 140.565 85.1612 140.565Z" fill="#3CD3C1"/>
<path opacity="0.7" d="M51.0681 144.857H29.7702C29.1941 144.857 28.7272 145.324 28.7272 145.9C28.7272 146.476 29.1941 146.943 29.7702 146.943H51.0681C51.6441 146.943 52.1111 146.476 52.1111 145.9C52.1111 145.324 51.6441 144.857 51.0681 144.857Z" fill="#3CD3C1"/>
<path opacity="0.7" d="M101.428 144.857H55.4978C54.8594 144.857 54.3419 145.375 54.3419 146.013C54.3419 146.651 54.8594 147.169 55.4978 147.169H101.428C102.066 147.169 102.584 146.651 102.584 146.013C102.584 145.375 102.066 144.857 101.428 144.857Z" fill="#3CD3C1"/>
<path opacity="0.7" d="M40.1661 150.677H12.1095C11.4967 150.677 11 151.173 11 151.786C11 152.399 11.4967 152.896 12.1095 152.896H40.1661C40.7789 152.896 41.2756 152.399 41.2756 151.786C41.2756 151.173 40.7789 150.677 40.1661 150.677Z" fill="#3CD3C1"/>
<path opacity="0.7" d="M28.441 154.982H12.043C11.467 154.982 11 155.448 11 156.025C11 156.601 11.467 157.068 12.043 157.068H28.441C29.0171 157.068 29.484 156.601 29.484 156.025C29.484 155.448 29.0171 154.982 28.441 154.982Z" fill="#3CD3C1"/>
<path opacity="0.7" d="M94.0315 154.982H37.9831C37.4034 154.982 36.9334 155.451 36.9334 156.031C36.9334 156.611 37.4034 157.081 37.9831 157.081H94.0315C94.6112 157.081 95.0811 156.611 95.0811 156.031C95.0811 155.451 94.6112 154.982 94.0315 154.982Z" fill="#3CD3C1"/>
<rect x="313" y="80.6507" width="114" height="69" rx="4" fill="#FAFAFA"/>
<path opacity="0.7" d="M353.166 93.6507H325.109C324.497 93.6507 324 94.1474 324 94.7601C324 95.3729 324.497 95.8696 325.109 95.8696H353.166C353.779 95.8696 354.276 95.3729 354.276 94.7601C354.276 94.1474 353.779 93.6507 353.166 93.6507Z" fill="#3CD3C1"/>
<path opacity="0.7" d="M341.441 97.9423H325.043C324.467 97.9423 324 98.4093 324 98.9853C324 99.5614 324.467 100.028 325.043 100.028H341.441C342.017 100.028 342.484 99.5614 342.484 98.9853C342.484 98.4093 342.017 97.9423 341.441 97.9423Z" fill="#3CD3C1"/>
<path opacity="0.7" d="M407.032 97.9423H350.983C350.403 97.9423 349.933 98.4123 349.933 98.992C349.933 99.5717 350.403 100.042 350.983 100.042H407.032C407.611 100.042 408.081 99.5717 408.081 98.992C408.081 98.4123 407.611 97.9423 407.032 97.9423Z" fill="#3CD3C1"/>
<path opacity="0.7" d="M357.927 102.261H334.717C334.108 102.261 333.614 102.754 333.614 103.363C333.614 103.972 334.108 104.466 334.717 104.466H357.927C358.536 104.466 359.029 103.972 359.029 103.363C359.029 102.754 358.536 102.261 357.927 102.261Z" fill="#3CD3C1"/>
<path opacity="0.7" d="M370.933 106.552H342.877C342.264 106.552 341.767 107.049 341.767 107.662C341.767 108.274 342.264 108.771 342.877 108.771H370.933C371.546 108.771 372.043 108.274 372.043 107.662C372.043 107.049 371.546 106.552 370.933 106.552Z" fill="#3CD3C1"/>
<path opacity="0.7" d="M398.148 106.552H375.243C374.561 106.552 374.008 107.105 374.008 107.788C374.008 108.47 374.561 109.023 375.243 109.023H398.148C398.83 109.023 399.384 108.47 399.384 107.788C399.384 107.105 398.83 106.552 398.148 106.552Z" fill="#3CD3C1"/>
<path opacity="0.7" d="M364.055 110.857H342.757C342.181 110.857 341.714 111.324 341.714 111.9C341.714 112.476 342.181 112.943 342.757 112.943H364.055C364.631 112.943 365.098 112.476 365.098 111.9C365.098 111.324 364.631 110.857 364.055 110.857Z" fill="#3CD3C1"/>
<path opacity="0.7" d="M414.428 110.857H368.498C367.859 110.857 367.342 111.375 367.342 112.013C367.342 112.651 367.859 113.169 368.498 113.169H414.428C415.066 113.169 415.584 112.651 415.584 112.013C415.584 111.375 415.066 110.857 414.428 110.857Z" fill="#3CD3C1"/>
<path opacity="0.7" d="M353.166 116.677H325.109C324.497 116.677 324 117.173 324 117.786C324 118.399 324.497 118.896 325.109 118.896H353.166C353.779 118.896 354.276 118.399 354.276 117.786C354.276 117.173 353.779 116.677 353.166 116.677Z" fill="#3CD3C1"/>
<path opacity="0.7" d="M341.441 120.968H325.043C324.467 120.968 324 121.435 324 122.011C324 122.587 324.467 123.054 325.043 123.054H341.441C342.017 123.054 342.484 122.587 342.484 122.011C342.484 121.435 342.017 120.968 341.441 120.968Z" fill="#3CD3C1"/>
<path opacity="0.7" d="M407.031 120.968H350.983C350.403 120.968 349.933 121.438 349.933 122.018C349.933 122.598 350.403 123.068 350.983 123.068H407.031C407.611 123.068 408.081 122.598 408.081 122.018C408.081 121.438 407.611 120.968 407.031 120.968Z" fill="#3CD3C1"/>
<path opacity="0.7" d="M357.927 125.273H334.717C334.108 125.273 333.614 125.767 333.614 126.376C333.614 126.985 334.108 127.479 334.717 127.479H357.927C358.536 127.479 359.029 126.985 359.029 126.376C359.029 125.767 358.536 125.273 357.927 125.273Z" fill="#3CD3C1"/>
<path opacity="0.7" d="M370.933 129.578H342.877C342.264 129.578 341.767 130.075 341.767 130.688C341.767 131.3 342.264 131.797 342.877 131.797H370.933C371.546 131.797 372.043 131.3 372.043 130.688C372.043 130.075 371.546 129.578 370.933 129.578Z" fill="#3CD3C1"/>
<path opacity="0.7" d="M398.148 129.578H375.243C374.561 129.578 374.008 130.131 374.008 130.814C374.008 131.496 374.561 132.049 375.243 132.049H398.148C398.83 132.049 399.384 131.496 399.384 130.814C399.384 130.131 398.83 129.578 398.148 129.578Z" fill="#3CD3C1"/>
<path opacity="0.7" d="M364.055 133.883H342.757C342.181 133.883 341.714 134.35 341.714 134.926C341.714 135.502 342.181 135.969 342.757 135.969H364.055C364.631 135.969 365.098 135.502 365.098 134.926C365.098 134.35 364.631 133.883 364.055 133.883Z" fill="#3CD3C1"/>
<path opacity="0.7" d="M414.428 133.883H368.498C367.859 133.883 367.342 134.401 367.342 135.039C367.342 135.677 367.859 136.195 368.498 136.195H414.428C415.066 136.195 415.584 135.677 415.584 135.039C415.584 134.401 415.066 133.883 414.428 133.883Z" fill="#3CD3C1"/>
<defs>
<linearGradient id="paint0_linear" x1="172" y1="221.156" x2="243.054" y2="221.156" gradientUnits="userSpaceOnUse">
<stop stop-color="#010101" stop-opacity="0"/>
<stop offset="0.95" stop-color="#525369"/>
</linearGradient>
<linearGradient id="paint1_linear" x1="15215.6" y1="13483.2" x2="19587.6" y2="13483.2" gradientUnits="userSpaceOnUse">
<stop stop-color="#191C3E" stop-opacity="0.33"/>
<stop offset="0.95" stop-color="#010101"/>
</linearGradient>
<linearGradient id="paint2_linear" x1="10322.9" y1="4708.97" x2="10310.5" y2="5828.92" gradientUnits="userSpaceOnUse">
<stop stop-color="#010101" stop-opacity="0"/>
<stop offset="0.95" stop-color="#010101"/>
</linearGradient>
</defs>
</svg>
